<svg id="Calque_1" data-name="Calque 1" xmlns="http://www.w3.org/2000/svg" viewBox="0 0 1210.65 370.26"><defs><style>.cls-1{fill:#8f8ebf;}.cls-2{fill:#474074;}.cls-3{fill:#4f4e8c;stroke:#474074;stroke-miterlimit:10;}</style></defs><title>rhombic-logo</title><path class="cls-1" d="M39.92,185.61a1.68,1.68,0,0,1-1-.32L37,184a1.74,1.74,0,1,1,2-2.86l1.91,1.33a1.75,1.75,0,0,1-1,3.18Z"/><path class="cls-1" d="M113.76,237.34a1.74,1.74,0,0,1-1-.31l-3.69-2.59a1.74,1.74,0,1,1,2-2.86l3.69,2.58a1.75,1.75,0,0,1-1,3.18Zm-9.23-6.46a1.75,1.75,0,0,1-1-.32L99.84,228a1.74,1.74,0,1,1,2-2.86l3.69,2.59a1.75,1.75,0,0,1-1,3.18Zm-9.23-6.47a1.68,1.68,0,0,1-1-.32l-3.69-2.58a1.74,1.74,0,1,1,2-2.86l3.69,2.58a1.75,1.75,0,0,1-1,3.18Zm-9.23-6.47a1.74,1.74,0,0,1-1-.31L81.38,215a1.74,1.74,0,1,1,2-2.86l3.69,2.59a1.74,1.74,0,0,1-1,3.17Zm-9.23-6.46a1.75,1.75,0,0,1-1-.32l-3.69-2.59a1.74,1.74,0,1,1,2-2.86l3.69,2.59a1.75,1.75,0,0,1-1,3.18ZM67.61,205a1.68,1.68,0,0,1-1-.32l-3.69-2.58a1.74,1.74,0,1,1,2-2.86l3.69,2.58a1.75,1.75,0,0,1-1,3.18Zm-9.23-6.47a1.74,1.74,0,0,1-1-.31l-3.69-2.59a1.74,1.74,0,1,1,2-2.86l3.69,2.59a1.74,1.74,0,0,1-1,3.17Zm-9.23-6.46a1.75,1.75,0,0,1-1-.32l-3.69-2.59a1.74,1.74,0,1,1,2-2.86l3.69,2.59a1.75,1.75,0,0,1-1,3.18Z"/><path class="cls-1" d="M121.2,242.56a1.77,1.77,0,0,1-1-.32l-1.9-1.34a1.74,1.74,0,1,1,2-2.86l.77.55.71-.63a1.75,1.75,0,1,1,2.33,2.61l-1.74,1.54A1.74,1.74,0,0,1,121.2,242.56Z"/><path class="cls-1" d="M128.34,236.2a1.75,1.75,0,0,1-1.16-3l3.6-3.21a1.75,1.75,0,1,1,2.32,2.61l-3.6,3.21A1.75,1.75,0,0,1,128.34,236.2Zm9-8a1.72,1.72,0,0,1-1.3-.59,1.74,1.74,0,0,1,.14-2.46l3.6-3.21a1.75,1.75,0,1,1,2.32,2.61l-3.6,3.2A1.71,1.71,0,0,1,137.34,228.19Zm9-8a1.71,1.71,0,0,1-1.3-.58,1.75,1.75,0,0,1,.14-2.47l3.6-3.2a1.74,1.74,0,1,1,2.32,2.6l-3.6,3.21A1.72,1.72,0,0,1,146.34,220.17Zm9-8a1.75,1.75,0,0,1-1.16-3l3.6-3.21a1.75,1.75,0,0,1,2.32,2.61l-3.6,3.21A1.77,1.77,0,0,1,155.34,212.16Zm9-8a1.75,1.75,0,0,1-1.16-3.06l3.6-3.2a1.75,1.75,0,0,1,2.32,2.61l-3.6,3.2A1.73,1.73,0,0,1,164.34,204.15Zm9-8a1.78,1.78,0,0,1-1.31-.58,1.75,1.75,0,0,1,.15-2.47l3.6-3.21a1.75,1.75,0,0,1,2.32,2.61l-3.6,3.21A1.72,1.72,0,0,1,173.34,196.13Zm9-8a1.74,1.74,0,0,1-1.16-3.05l3.59-3.21a1.75,1.75,0,1,1,2.33,2.61l-3.6,3.21A1.77,1.77,0,0,1,182.34,188.12Zm9-8a1.75,1.75,0,0,1-1.17-3l3.6-3.2a1.75,1.75,0,1,1,2.33,2.61l-3.6,3.2A1.74,1.74,0,0,1,191.34,180.1Z"/><path class="cls-1" d="M200.34,172.09a1.75,1.75,0,0,1-1.17-3.05l.12-.1-.13-.09a1.74,1.74,0,0,1,2-2.83l1.89,1.36a1.74,1.74,0,0,1,.15,2.72l-1.74,1.55A1.79,1.79,0,0,1,200.34,172.09Z"/><path class="cls-1" d="M194.72,165.25a1.77,1.77,0,0,1-1-.33l-3.64-2.62a1.75,1.75,0,1,1,2.05-2.83l3.63,2.62a1.74,1.74,0,0,1-1,3.16Zm-9.1-6.55a1.72,1.72,0,0,1-1-.33L181,155.75a1.74,1.74,0,1,1,2-2.83l3.64,2.62a1.75,1.75,0,0,1-1,3.16Zm-9.09-6.55a1.75,1.75,0,0,1-1-.33l-3.64-2.62a1.74,1.74,0,1,1,2-2.83l3.64,2.62a1.75,1.75,0,0,1-1,3.16Zm-9.1-6.55a1.75,1.75,0,0,1-1-.33l-3.64-2.62a1.74,1.74,0,1,1,2-2.83l3.64,2.62a1.75,1.75,0,0,1-1,3.16Zm-9.1-6.55a1.75,1.75,0,0,1-1-.33l-3.64-2.62a1.74,1.74,0,1,1,2-2.83l3.64,2.62a1.74,1.74,0,0,1-1,3.16Zm-9.1-6.55a1.75,1.75,0,0,1-1-.33l-3.64-2.62a1.74,1.74,0,1,1,2-2.83l3.64,2.62a1.74,1.74,0,0,1-1,3.16Zm-9.1-6.55a1.77,1.77,0,0,1-1-.33L135.47,123a1.75,1.75,0,0,1,2-2.84l3.64,2.62a1.76,1.76,0,0,1,.4,2.44A1.74,1.74,0,0,1,140.13,126ZM131,119.4a1.77,1.77,0,0,1-1-.33l-3.64-2.62a1.75,1.75,0,0,1,2-2.84l3.64,2.62a1.75,1.75,0,0,1-1,3.17Z"/><path class="cls-1" d="M121.93,112.85a1.77,1.77,0,0,1-1-.33L119,111.16a1.75,1.75,0,0,1-.44-2.38l1.28-1.94a1.74,1.74,0,0,1,2.92,1.91l-.36.55.53.38a1.75,1.75,0,0,1-1,3.17Z"/><path class="cls-1" d="M125.3,103.49a1.79,1.79,0,0,1-1-.29,1.75,1.75,0,0,1-.5-2.42l2.65-4a1.74,1.74,0,1,1,2.92,1.91l-2.65,4A1.74,1.74,0,0,1,125.3,103.49Zm6.63-10.09a1.79,1.79,0,0,1-1-.29,1.75,1.75,0,0,1-.5-2.42l2.66-4A1.74,1.74,0,1,1,136,88.57l-2.65,4A1.74,1.74,0,0,1,131.93,93.4Zm6.63-10.1a1.78,1.78,0,0,1-1-.28,1.75,1.75,0,0,1-.5-2.42l2.66-4a1.75,1.75,0,0,1,2.92,1.92l-2.66,4A1.73,1.73,0,0,1,138.56,83.3Zm6.63-10.09a1.73,1.73,0,0,1-.95-.28,1.76,1.76,0,0,1-.51-2.42l2.66-4a1.75,1.75,0,0,1,2.92,1.92l-2.66,4A1.73,1.73,0,0,1,145.19,73.21Zm6.63-10.09a1.73,1.73,0,0,1-.95-.28,1.75,1.75,0,0,1-.5-2.42l2.65-4a1.75,1.75,0,0,1,2.92,1.92l-2.65,4A1.74,1.74,0,0,1,151.82,63.12Z"/><path class="cls-1" d="M158.45,53a1.68,1.68,0,0,1-.95-.29,1.73,1.73,0,0,1-.5-2.41l1.28-1.95a1.73,1.73,0,0,1,2.41-.5,1.75,1.75,0,0,1,.51,2.42l-1.28,1.94A1.77,1.77,0,0,1,158.45,53Z"/><path class="cls-1" d="M38,184.27a1.71,1.71,0,0,1-1.3-.58,1.75,1.75,0,0,1,.14-2.47l1.75-1.54a1.74,1.74,0,1,1,2.31,2.61l-1.74,1.54A1.7,1.7,0,0,1,38,184.27Z"/><path class="cls-1" d="M45.24,177.87a1.73,1.73,0,0,1-1.31-.59,1.74,1.74,0,0,1,.15-2.47l3.65-3.24a1.75,1.75,0,0,1,2.32,2.61l-3.66,3.25A1.74,1.74,0,0,1,45.24,177.87Zm9.13-8.11a1.78,1.78,0,0,1-1.31-.58,1.75,1.75,0,0,1,.15-2.47l3.65-3.24a1.75,1.75,0,1,1,2.32,2.61l-3.65,3.24A1.74,1.74,0,0,1,54.37,169.76Zm9.13-8.1a1.75,1.75,0,0,1-1.16-3L66,155.36A1.75,1.75,0,0,1,68.31,158l-3.65,3.24A1.77,1.77,0,0,1,63.5,161.66Zm9.14-8.11a1.72,1.72,0,0,1-1.31-.58,1.74,1.74,0,0,1,.15-2.47l3.65-3.24a1.75,1.75,0,0,1,2.32,2.61l-3.66,3.24A1.69,1.69,0,0,1,72.64,153.55Zm9.13-8.1a1.74,1.74,0,0,1-1.16-3l3.65-3.24a1.75,1.75,0,1,1,2.32,2.61L82.93,145A1.79,1.79,0,0,1,81.77,145.45Zm9.13-8.1a1.75,1.75,0,0,1-1.16-3.06l3.66-3.24a1.74,1.74,0,1,1,2.31,2.61l-3.65,3.25A1.77,1.77,0,0,1,90.9,137.35Zm9.14-8.11a1.74,1.74,0,0,1-1.16-3.05l3.65-3.24a1.75,1.75,0,0,1,2.32,2.61l-3.66,3.24A1.69,1.69,0,0,1,100,129.24Zm9.13-8.1a1.75,1.75,0,0,1-1.16-3.06l3.65-3.24a1.75,1.75,0,0,1,2.32,2.62l-3.65,3.24A1.79,1.79,0,0,1,109.17,121.14Z"/><path class="cls-1" d="M118.3,113a1.75,1.75,0,0,1-1.16-3l1.74-1.55a1.75,1.75,0,0,1,2.32,2.62l-1.74,1.54A1.72,1.72,0,0,1,118.3,113Z"/><path class="cls-1" d="M202.07,170.54a1.77,1.77,0,0,1-1-.33,1.75,1.75,0,0,1-.39-2.44l1.37-1.89a1.74,1.74,0,0,1,2.82,2.05l-1.36,1.89A1.75,1.75,0,0,1,202.07,170.54Z"/><path class="cls-1" d="M207.49,163.07a1.71,1.71,0,0,1-1-.34,1.75,1.75,0,0,1-.39-2.44l2.7-3.72a1.75,1.75,0,1,1,2.83,2.05l-2.7,3.72A1.74,1.74,0,0,1,207.49,163.07Zm6.76-9.32a1.77,1.77,0,0,1-1-.33,1.75,1.75,0,0,1-.39-2.44l2.7-3.73a1.75,1.75,0,1,1,2.83,2.05l-2.7,3.73A1.77,1.77,0,0,1,214.25,153.75Zm6.76-9.32a1.78,1.78,0,0,1-1-.33,1.74,1.74,0,0,1-.38-2.44l2.7-3.73a1.75,1.75,0,1,1,2.83,2l-2.71,3.73A1.73,1.73,0,0,1,221,144.43Zm6.76-9.32a1.78,1.78,0,0,1-1-.33,1.75,1.75,0,0,1-.39-2.44l2.71-3.73a1.74,1.74,0,0,1,2.82,2l-2.7,3.73A1.73,1.73,0,0,1,227.77,135.11Zm6.75-9.32a1.7,1.7,0,0,1-1-.33,1.74,1.74,0,0,1-.39-2.44l2.7-3.72a1.75,1.75,0,1,1,2.83,2l-2.7,3.72A1.75,1.75,0,0,1,234.52,125.79Z"/><path class="cls-1" d="M241.28,116.48a1.74,1.74,0,0,1-1.41-2.77l1.36-1.89a1.75,1.75,0,1,1,2.83,2.05l-1.36,1.89A1.77,1.77,0,0,1,241.28,116.48Z"/><path class="cls-1" d="M244.41,245.14a1.75,1.75,0,0,1-1.52-.89l-1.15-2a1.75,1.75,0,0,1,3-1.73l1.15,2a1.75,1.75,0,0,1-1.52,2.61Z"/><path class="cls-1" d="M239.62,236.7a1.76,1.76,0,0,1-1.52-.89l-2.42-4.27a1.74,1.74,0,0,1,3-1.73l2.43,4.28a1.75,1.75,0,0,1-.65,2.38A1.83,1.83,0,0,1,239.62,236.7ZM233.56,226a1.74,1.74,0,0,1-1.52-.89l-2.43-4.27a1.75,1.75,0,0,1,3-1.73l2.43,4.28a1.75,1.75,0,0,1-.66,2.38A1.68,1.68,0,0,1,233.56,226Zm-6.07-10.69a1.75,1.75,0,0,1-1.52-.88l-2.43-4.28a1.75,1.75,0,0,1,3-1.72l2.43,4.27a1.75,1.75,0,0,1-.66,2.38A1.68,1.68,0,0,1,227.49,215.32Zm-6.07-10.69a1.77,1.77,0,0,1-1.52-.88l-2.42-4.28a1.75,1.75,0,1,1,3-1.72l2.42,4.27a1.75,1.75,0,0,1-.65,2.38A1.72,1.72,0,0,1,221.42,204.63Zm-6.06-10.69a1.73,1.73,0,0,1-1.52-.88l-2.43-4.28a1.75,1.75,0,1,1,3-1.72l2.43,4.27a1.74,1.74,0,0,1-1.52,2.61Zm-6.07-10.69a1.73,1.73,0,0,1-1.52-.88l-2.43-4.28a1.75,1.75,0,1,1,3-1.72l2.43,4.28a1.75,1.75,0,0,1-.66,2.38A1.78,1.78,0,0,1,209.29,183.25Z"/><path class="cls-1" d="M203.22,172.57a1.76,1.76,0,0,1-1.52-.89l-1.15-2a1.75,1.75,0,0,1,3-1.73l1.15,2a1.75,1.75,0,0,1-.65,2.38A1.83,1.83,0,0,1,203.22,172.57Z"/><path class="cls-1" d="M159.74,313.05a1.74,1.74,0,0,1-1.54-.91l-1.11-2a1.74,1.74,0,1,1,3.06-1.67l1.12,2a1.75,1.75,0,0,1-.7,2.37A1.76,1.76,0,0,1,159.74,313.05Z"/><path class="cls-1" d="M155.32,305a1.73,1.73,0,0,1-1.53-.91l-2.2-4a1.75,1.75,0,0,1,3.06-1.68l2.2,4a1.75,1.75,0,0,1-.69,2.37A1.83,1.83,0,0,1,155.32,305Zm-5.5-10.06a1.73,1.73,0,0,1-1.53-.91l-2.2-4a1.75,1.75,0,0,1,3.06-1.68l2.2,4a1.76,1.76,0,0,1-.69,2.37A1.83,1.83,0,0,1,149.82,294.91Zm-5.5-10.06a1.73,1.73,0,0,1-1.53-.91l-2.2-4a1.74,1.74,0,1,1,3.06-1.67l2.2,4a1.77,1.77,0,0,1-.69,2.38A1.83,1.83,0,0,1,144.32,284.85Zm-5.5-10.06a1.74,1.74,0,0,1-1.53-.91l-2.2-4a1.74,1.74,0,1,1,3.06-1.67l2.2,4a1.75,1.75,0,0,1-1.53,2.59Zm-5.5-10.06a1.74,1.74,0,0,1-1.53-.91l-2.2-4a1.74,1.74,0,1,1,3.06-1.67l2.2,4a1.74,1.74,0,0,1-.69,2.37A1.7,1.7,0,0,1,133.32,264.73Zm-5.5-10.07a1.74,1.74,0,0,1-1.53-.91l-2.2-4a1.75,1.75,0,0,1,3.06-1.68l2.2,4a1.74,1.74,0,0,1-.69,2.37A1.8,1.8,0,0,1,127.82,254.66Z"/><path class="cls-1" d="M122.32,244.6a1.75,1.75,0,0,1-1.53-.91l-1.12-2a1.75,1.75,0,0,1,3.07-1.68l1.11,2.05a1.74,1.74,0,0,1-.69,2.37A1.8,1.8,0,0,1,122.32,244.6Z"/><path class="cls-2" d="M159.74,313.93a2.64,2.64,0,0,1-1.56-.51l-80.26-59.1a2.57,2.57,0,0,1-.7-.77L35.76,183.87a2.62,2.62,0,0,1,0-2.74l37.93-60a2.24,2.24,0,0,1,.49-.57L158,47.37a2.62,2.62,0,0,1,3.32-.11l82.91,63.51a2.45,2.45,0,0,1,.73.87l37.93,73.21a2.6,2.6,0,0,1-.11,2.6l-36.16,57.34a2.72,2.72,0,0,1-.58.64l-84.68,67.92A2.6,2.6,0,0,1,159.74,313.93ZM81.45,250.41,159.67,308l82.76-66.38,35.13-55.69-37-71.36L159.84,52.72,78,124.27l-36.86,58.3Z"/><path class="cls-2" d="M119.16,202.17a2.62,2.62,0,0,1-1.7-4.62l81.31-69.45L157.42,50.57a2.62,2.62,0,0,1,4.63-2.46l42.34,79.38a2.64,2.64,0,0,1-.61,3.23l-82.92,70.82A2.62,2.62,0,0,1,119.16,202.17Z"/><path class="cls-2" d="M119.16,202.17a2.63,2.63,0,0,1-2.28-1.34l-43.22-77a2.62,2.62,0,1,1,4.57-2.56l43.22,77a2.63,2.63,0,0,1-1,3.57A2.56,2.56,0,0,1,119.16,202.17Z"/><path class="cls-2" d="M79.47,254.83a2.59,2.59,0,0,1-1.58-.53,2.63,2.63,0,0,1-.51-3.67L117.07,198a2.62,2.62,0,1,1,4.18,3.15L81.56,253.79A2.61,2.61,0,0,1,79.47,254.83Z"/><path class="cls-2" d="M202.07,261a2.6,2.6,0,0,1-1.51-.48l-82.91-58.84a2.62,2.62,0,1,1,3-4.27L201.86,255l74.6-68.73-75.93-55.45a2.62,2.62,0,1,1,3.09-4.23l78.5,57.33a2.62,2.62,0,0,1,.23,4l-78.5,72.33A2.62,2.62,0,0,1,202.07,261Z"/><path class="cls-2" d="M159.73,313.93a2.58,2.58,0,0,1-1.63-.58,2.62,2.62,0,0,1-.41-3.68L200,256.75a2.62,2.62,0,0,1,4.09,3.27l-42.34,52.92A2.62,2.62,0,0,1,159.73,313.93Z"/><path class="cls-3" d="M461.39,294.29a7,7,0,0,1-.22,9.94,6.82,6.82,0,0,1-4.86,2,6.39,6.39,0,0,1-5.08-2.21l-43.3-44.85H370.81v40a7.07,7.07,0,0,1-14.14,0V157.31a7,7,0,0,1,7.07-7.07H411A54.48,54.48,0,0,1,425.6,257.17Zm-90.58-49.05H411a40.54,40.54,0,0,0,0-81.08H370.81Z"/><path class="cls-3" d="M575.17,237.73v61.42a7,7,0,0,1-7.07,7.07,7.11,7.11,0,0,1-7.07-7.07V237.73c0-21-14.58-36.89-34-36.89s-34.24,15.9-34.24,36.89v61.42a7,7,0,0,1-7.07,7.07,7.11,7.11,0,0,1-7.07-7.07V157.31a7.12,7.12,0,0,1,7.07-7.07,7,7,0,0,1,7.07,7.07v43.75A47.13,47.13,0,0,1,527,186.92C554.4,186.92,575.17,208.79,575.17,237.73Z"/><path class="cls-3" d="M648.07,306.22a59.65,59.65,0,1,1,59.65-59.65A59.68,59.68,0,0,1,648.07,306.22Zm0-105.38a45.62,45.62,0,1,0,45.51,45.73A45.63,45.63,0,0,0,648.07,200.84Z"/><path class="cls-3" d="M889.11,237.73v61.42a7.07,7.07,0,0,1-14.14,0V237.73c0-21.65-12.16-36.89-29.83-36.89-19.22,0-33.14,15.68-33.14,36.89v61.42a7,7,0,1,1-13.92,0V237.73c0-21.65-12.37-36.89-29.82-36.89-19.22,0-33.14,15.68-33.14,36.89v61.42a7.12,7.12,0,0,1-7.07,7.07,7,7,0,0,1-7.07-7.07V193.77a6.93,6.93,0,0,1,7.07-6.85,7.08,7.08,0,0,1,7.07,6.85v6.85a45.31,45.31,0,0,1,33.14-13.7c16.12,0,29.6,8.62,37.11,22.53a44.75,44.75,0,0,1,5.3-7.29c8.62-9.94,21-15.24,34.47-15.24C870.55,186.92,889.11,208.35,889.11,237.73Z"/><path class="cls-3" d="M1015.25,246.57c0,34-24.3,59.65-56.55,59.65a54,54,0,0,1-42.2-19.44v12.37a7.12,7.12,0,0,1-7.07,7.07,7,7,0,0,1-7.07-7.07V157.31a7,7,0,0,1,7.07-7.07,7.13,7.13,0,0,1,7.07,7.07v48.83a54.53,54.53,0,0,1,42.2-19.22C991,186.92,1015.25,212.55,1015.25,246.57Zm-14.13,0c0-26.07-18.12-45.73-42.42-45.73-24.09,0-42.2,19.66-42.2,45.73,0,25.85,18.11,45.51,42.2,45.51C983,292.08,1001.12,272.42,1001.12,246.57Z"/><path class="cls-3" d="M1037.35,160.63a7.64,7.64,0,0,1,7.73,7.51,7.5,7.5,0,0,1-7.73,7.51,7.64,7.64,0,0,1-7.74-7.51A7.79,7.79,0,0,1,1037.35,160.63Zm0,145.59a7.11,7.11,0,0,1-7.07-7.07V193.77a7.07,7.07,0,0,1,7.07-6.85,6.94,6.94,0,0,1,7.07,6.85V299.15A7,7,0,0,1,1037.35,306.22Z"/><path class="cls-3" d="M1115.78,306.22c-32,0-56.34-25.63-56.34-59.65s24.3-59.65,56.34-59.65c18.55,0,35.12,8.39,45.51,23.42a7,7,0,1,1-11.49,8.17,40.52,40.52,0,0,0-34-17.67c-24.09,0-42.42,19.66-42.42,45.73,0,25.85,18.33,45.51,42.42,45.51,14.14,0,26.07-6.18,34-17.45a7,7,0,1,1,11.49,7.95A54.47,54.47,0,0,1,1115.78,306.22Z"/></svg>